<mxfile host="65bd71144e" pages="2">
    <diagram name="current" id="NZMA0Betqt3oat-H-MPV">
        <mxGraphModel dx="1497" dy="732" grid="1" gridSize="10" guides="1" tooltips="1" connect="1" arrows="1" fold="1" page="1" pageScale="1" pageWidth="827" pageHeight="1169" math="0" shadow="0">
            <root>
                <mxCell id="WF4X5hiQnJDSYWs5_pEE-0"/>
                <mxCell id="WF4X5hiQnJDSYWs5_pEE-1" parent="WF4X5hiQnJDSYWs5_pEE-0"/>
                <mxCell id="86" value="" style="rounded=0;whiteSpace=wrap;html=1;" vertex="1" parent="WF4X5hiQnJDSYWs5_pEE-1">
                    <mxGeometry x="20" y="30" width="1350" height="800" as="geometry"/>
                </mxCell>
                <mxCell id="WF4X5hiQnJDSYWs5_pEE-4" value="" style="rounded=0;whiteSpace=wrap;html=1;" parent="WF4X5hiQnJDSYWs5_pEE-1" vertex="1">
                    <mxGeometry x="450" y="210" width="890" height="600" as="geometry"/>
                </mxCell>
                <mxCell id="WF4X5hiQnJDSYWs5_pEE-46" value="&lt;font style=&quot;font-size: 22px&quot;&gt;決済アプリケーション&lt;/font&gt;" style="text;html=1;strokeColor=none;fillColor=none;align=center;verticalAlign=middle;whiteSpace=wrap;rounded=0;" parent="WF4X5hiQnJDSYWs5_pEE-1" vertex="1">
                    <mxGeometry x="20" y="30" width="340" height="60" as="geometry"/>
                </mxCell>
                <mxCell id="WF4X5hiQnJDSYWs5_pEE-57" value="&lt;span style=&quot;font-size: 20px&quot;&gt;決済&lt;/span&gt;" style="text;html=1;strokeColor=none;fillColor=none;align=center;verticalAlign=middle;whiteSpace=wrap;rounded=0;dashed=1;" parent="WF4X5hiQnJDSYWs5_pEE-1" vertex="1">
                    <mxGeometry x="450" y="210" width="70" height="40" as="geometry"/>
                </mxCell>
                <mxCell id="WF4X5hiQnJDSYWs5_pEE-69" value="&lt;span style=&quot;font-size: 20px&quot;&gt;代引き決済サービス&lt;/span&gt;" style="rounded=1;whiteSpace=wrap;html=1;align=center;verticalAlign=top;" parent="WF4X5hiQnJDSYWs5_pEE-1" vertex="1">
                    <mxGeometry x="760" y="370" width="310" height="120" as="geometry"/>
                </mxCell>
                <mxCell id="30" value="&lt;span style=&quot;font-size: 20px&quot;&gt;order-pubsub&lt;br&gt;&lt;/span&gt;" style="text;html=1;strokeColor=none;fillColor=none;align=center;verticalAlign=middle;whiteSpace=wrap;rounded=0;dashed=1;" parent="WF4X5hiQnJDSYWs5_pEE-1" vertex="1">
                    <mxGeometry x="60" y="410" width="155" height="40" as="geometry"/>
                </mxCell>
                <mxCell id="47" value="&lt;span style=&quot;font-size: 20px&quot;&gt;クレジット決済サービス&lt;/span&gt;" style="rounded=1;whiteSpace=wrap;html=1;align=center;verticalAlign=top;" vertex="1" parent="WF4X5hiQnJDSYWs5_pEE-1">
                    <mxGeometry x="760" y="517.5" width="310" height="132.5" as="geometry"/>
                </mxCell>
                <mxCell id="48" value="&lt;span style=&quot;font-size: 20px&quot;&gt;コンビニ決済サービス&lt;/span&gt;" style="rounded=1;whiteSpace=wrap;html=1;align=center;verticalAlign=top;" vertex="1" parent="WF4X5hiQnJDSYWs5_pEE-1">
                    <mxGeometry x="760" y="660" width="310" height="130" as="geometry"/>
                </mxCell>
                <mxCell id="49" value="&lt;span style=&quot;font-size: 20px&quot;&gt;決済サービスフロント&lt;/span&gt;" style="rounded=1;whiteSpace=wrap;html=1;align=center;verticalAlign=top;" vertex="1" parent="WF4X5hiQnJDSYWs5_pEE-1">
                    <mxGeometry x="760" y="230" width="310" height="120" as="geometry"/>
                </mxCell>
                <mxCell id="63" style="edgeStyle=orthogonalEdgeStyle;rounded=0;orthogonalLoop=1;jettySize=auto;html=1;entryX=0;entryY=0.5;entryDx=0;entryDy=0;" edge="1" parent="WF4X5hiQnJDSYWs5_pEE-1" source="50" target="59">
                    <mxGeometry relative="1" as="geometry"/>
                </mxCell>
                <mxCell id="73" style="edgeStyle=orthogonalEdgeStyle;rounded=0;orthogonalLoop=1;jettySize=auto;html=1;entryX=0;entryY=0.5;entryDx=0;entryDy=0;exitX=0;exitY=0.75;exitDx=0;exitDy=0;" edge="1" parent="WF4X5hiQnJDSYWs5_pEE-1" source="50" target="51">
                    <mxGeometry relative="1" as="geometry">
                        <Array as="points">
                            <mxPoint x="700" y="317"/>
                            <mxPoint x="700" y="445"/>
                        </Array>
                    </mxGeometry>
                </mxCell>
                <mxCell id="85" style="edgeStyle=orthogonalEdgeStyle;rounded=0;orthogonalLoop=1;jettySize=auto;html=1;entryX=0.5;entryY=1;entryDx=0;entryDy=0;entryPerimeter=0;" edge="1" parent="WF4X5hiQnJDSYWs5_pEE-1" source="50" target="83">
                    <mxGeometry relative="1" as="geometry">
                        <Array as="points">
                            <mxPoint x="620" y="305"/>
                            <mxPoint x="620" y="430"/>
                        </Array>
                    </mxGeometry>
                </mxCell>
                <mxCell id="50" value="" style="shape=image;verticalLabelPosition=bottom;labelBackgroundColor=#ffffff;verticalAlign=top;aspect=fixed;imageAspect=0;image=data:image/png,iVBORw0KGgoAAAANSUhEUgAAAE4AAAAxCAYAAAB03p8JAAAFXklEQVRoBe2b/0+VVRzH/Qf80VWbNV2tsdFm5rIvzi3LcuvbxmxWazpa0WakMVqDxqqV5Q/ZgixB5EtQKNJFMwgEQu6gQpBvASIFChqFIghTubfQtk97P+5czrf7PA9P94vP9pztcM495/PtvO455znnuWMReckRgUWOtDwl8sA5nAQ3BbiaH0coLcuvzVvfbiQ7Oe+rXx0icKZ2U4CrbjhDy+4rUPIdK/fR4uW7beVPczucEXCo5YHzwHkzLrRkvaVqsRy8Pc4CULhuD1w4MhbtHjgLQOG6PXDhyFi0e+AsAIXr9sARUcvxMSXzwPw//0FllQNCztjRTMtW7Qvl2+7JI+RbEnNp8fLPbeWXtv5ApRUnhXy8c5x3HdF6xG8OT754SLgi4TOf3sxqCp3TdNespSvyBX27Vy6d3Dsf/cS7jmjdA+cQZ8zBVVYPUXZ+Z9j8WV4H7cxpi0iuqjvtEIu1WszBWYfkDgkPnMPvyQPngXNIwKGaoxl3dXaOMne00GMbfcbRYUtqLRUf6DdCsDqOsDjLDw8S9BIeKqbVT+ynD3a1UmPzOeMM+HF2G/EZZ0MklHw76kgVR36jV9LqCa+h1jxVTmlZTXT02KjRJ//ZmdNOyLwdyHT3TdCuPR2E+JldWZf/vGBw/YNTdOf9hdqz1vqNPsMxf6aSz3FwDmC8DF9H0Pxn1Hlwcp9OnskAppzkLxb6AMl0UEYc3OnRGcEB74zVb03ME2RkcA9s2C/0Mz2z0gycmR76Sg6eFNjpwMk2Igrun7l/jWUgO7H6zIPDUrCS1/X/H3Cwd6L7fAieDE7nL6LgfFVDyqATHi6m6vozRlDtXePGXiUHwoNb83S5YgNBnhu7TH+ev2osEVkfn83ArXik1NhfJy8FaXDoEr2ReUzx8dpbDabgVj76tbFnw09OfldklyoGKA9KtwGvfeagIMfABYLXhXbYSkr+PjQgVsFDRvZjBq7Bf5aphko8bHgbeACxJM+4JQm5oS+GydgpbT8cNr1aLQSzav03Wvvp7/oFOQaup39CaMfAfFW/KzYwc/hBo24GTjFARHIMsNE7cNEQlcG9vL1OZ8KyzTa41Ax1CVy+Mqc4SN5+VBg4A4flKAPR7SUYoCy3UHDylwx7U9NBLbj3P2lVxmCnwTa4Lwq7lQEVlPUJPg7XDCsyDBwEb79XfGWEJSUn3VHFDJwO/t0PFglxYPtgSZ5xOn0ma1baBlfbOCIEw2ZF9t5OYyl9WdSj7efBPf7cjQMz00UJUGW+UwToOmiQMQOH/pT0BkO/tGKA1iV9q8SR8WFLiEHMwcHzhk2VSlA8BF2dB3fg0OCC9e2A0/llbbhNTE3/HV9wFy4GLAcuf6M8OESPzZgNSlfKT0TIWM04nR3W9suJv0LQUJHji/pSZd4nJgNhlxSCkAOTwcEO7qlsYHwJaIDEt6FuBg7LPHFtiaKDfQ53WDnJ8cUMHAukrmnUOHjCcb3/rHGIRR8GKWemw5e48+I4srugm7A3dfVeoEDgmqLLbEEXLxZkqMHgdZqdvUZtneNUWNZPe0t6CW9+p2fmlyfvl9njS77fbt32w8GuwWjKpb8nnhEBkR0zoulXZ9tV4FIzG5UZNzZ+RTeuqLe5ClxKer0CbnhkJuqQdA5cBW5Lao0Cru/UpG5cUW9zFbgXUsT7MvY4/pVR1GlxDlwFLin5iDLjmltvvFbnxhSTqqvAJW8TXyBgxuEoFI/kKnDPa5bqd7XD8eDmrv+seXazulRxC4lHctWMu2u1+usa+1ky1vBcBQ735M2vz/+0iN8H4pVcBY5B2lPUQ+1d879csfZYlq4EF0tA4Xz9B+kG/2L7ymy+AAAAAElFTkSuQmCC;" vertex="1" parent="WF4X5hiQnJDSYWs5_pEE-1">
                    <mxGeometry x="793" y="280" width="78" height="49" as="geometry"/>
                </mxCell>
                <mxCell id="64" style="edgeStyle=orthogonalEdgeStyle;rounded=0;orthogonalLoop=1;jettySize=auto;html=1;entryX=0;entryY=0.5;entryDx=0;entryDy=0;" edge="1" parent="WF4X5hiQnJDSYWs5_pEE-1" source="51" target="60">
                    <mxGeometry relative="1" as="geometry"/>
                </mxCell>
                <mxCell id="51" value="" style="shape=image;verticalLabelPosition=bottom;labelBackgroundColor=#ffffff;verticalAlign=top;aspect=fixed;imageAspect=0;image=data:image/png,iVBORw0KGgoAAAANSUhEUgAAAE4AAAAxCAYAAAB03p8JAAAFXklEQVRoBe2b/0+VVRzH/Qf80VWbNV2tsdFm5rIvzi3LcuvbxmxWazpa0WakMVqDxqqV5Q/ZgixB5EtQKNJFMwgEQu6gQpBvASIFChqFIghTubfQtk97P+5czrf7PA9P94vP9pztcM495/PtvO455znnuWMReckRgUWOtDwl8sA5nAQ3BbiaH0coLcuvzVvfbiQ7Oe+rXx0icKZ2U4CrbjhDy+4rUPIdK/fR4uW7beVPczucEXCo5YHzwHkzLrRkvaVqsRy8Pc4CULhuD1w4MhbtHjgLQOG6PXDhyFi0e+AsAIXr9sARUcvxMSXzwPw//0FllQNCztjRTMtW7Qvl2+7JI+RbEnNp8fLPbeWXtv5ApRUnhXy8c5x3HdF6xG8OT754SLgi4TOf3sxqCp3TdNespSvyBX27Vy6d3Dsf/cS7jmjdA+cQZ8zBVVYPUXZ+Z9j8WV4H7cxpi0iuqjvtEIu1WszBWYfkDgkPnMPvyQPngXNIwKGaoxl3dXaOMne00GMbfcbRYUtqLRUf6DdCsDqOsDjLDw8S9BIeKqbVT+ynD3a1UmPzOeMM+HF2G/EZZ0MklHw76kgVR36jV9LqCa+h1jxVTmlZTXT02KjRJ//ZmdNOyLwdyHT3TdCuPR2E+JldWZf/vGBw/YNTdOf9hdqz1vqNPsMxf6aSz3FwDmC8DF9H0Pxn1Hlwcp9OnskAppzkLxb6AMl0UEYc3OnRGcEB74zVb03ME2RkcA9s2C/0Mz2z0gycmR76Sg6eFNjpwMk2Igrun7l/jWUgO7H6zIPDUrCS1/X/H3Cwd6L7fAieDE7nL6LgfFVDyqATHi6m6vozRlDtXePGXiUHwoNb83S5YgNBnhu7TH+ev2osEVkfn83ArXik1NhfJy8FaXDoEr2ReUzx8dpbDabgVj76tbFnw09OfldklyoGKA9KtwGvfeagIMfABYLXhXbYSkr+PjQgVsFDRvZjBq7Bf5aphko8bHgbeACxJM+4JQm5oS+GydgpbT8cNr1aLQSzav03Wvvp7/oFOQaup39CaMfAfFW/KzYwc/hBo24GTjFARHIMsNE7cNEQlcG9vL1OZ8KyzTa41Ax1CVy+Mqc4SN5+VBg4A4flKAPR7SUYoCy3UHDylwx7U9NBLbj3P2lVxmCnwTa4Lwq7lQEVlPUJPg7XDCsyDBwEb79XfGWEJSUn3VHFDJwO/t0PFglxYPtgSZ5xOn0ma1baBlfbOCIEw2ZF9t5OYyl9WdSj7efBPf7cjQMz00UJUGW+UwToOmiQMQOH/pT0BkO/tGKA1iV9q8SR8WFLiEHMwcHzhk2VSlA8BF2dB3fg0OCC9e2A0/llbbhNTE3/HV9wFy4GLAcuf6M8OESPzZgNSlfKT0TIWM04nR3W9suJv0LQUJHji/pSZd4nJgNhlxSCkAOTwcEO7qlsYHwJaIDEt6FuBg7LPHFtiaKDfQ53WDnJ8cUMHAukrmnUOHjCcb3/rHGIRR8GKWemw5e48+I4srugm7A3dfVeoEDgmqLLbEEXLxZkqMHgdZqdvUZtneNUWNZPe0t6CW9+p2fmlyfvl9njS77fbt32w8GuwWjKpb8nnhEBkR0zoulXZ9tV4FIzG5UZNzZ+RTeuqLe5ClxKer0CbnhkJuqQdA5cBW5Lao0Cru/UpG5cUW9zFbgXUsT7MvY4/pVR1GlxDlwFLin5iDLjmltvvFbnxhSTqqvAJW8TXyBgxuEoFI/kKnDPa5bqd7XD8eDmrv+seXazulRxC4lHctWMu2u1+usa+1ky1vBcBQ735M2vz/+0iN8H4pVcBY5B2lPUQ+1d879csfZYlq4EF0tA4Xz9B+kG/2L7ymy+AAAAAElFTkSuQmCC;" vertex="1" parent="WF4X5hiQnJDSYWs5_pEE-1">
                    <mxGeometry x="793" y="420" width="78" height="49" as="geometry"/>
                </mxCell>
                <mxCell id="65" style="edgeStyle=orthogonalEdgeStyle;rounded=0;orthogonalLoop=1;jettySize=auto;html=1;entryX=0;entryY=0.5;entryDx=0;entryDy=0;" edge="1" parent="WF4X5hiQnJDSYWs5_pEE-1" source="52" target="61">
                    <mxGeometry relative="1" as="geometry"/>
                </mxCell>
                <mxCell id="52" value="" style="shape=image;verticalLabelPosition=bottom;labelBackgroundColor=#ffffff;verticalAlign=top;aspect=fixed;imageAspect=0;image=data:image/png,iVBORw0KGgoAAAANSUhEUgAAAE4AAAAxCAYAAAB03p8JAAAFXklEQVRoBe2b/0+VVRzH/Qf80VWbNV2tsdFm5rIvzi3LcuvbxmxWazpa0WakMVqDxqqV5Q/ZgixB5EtQKNJFMwgEQu6gQpBvASIFChqFIghTubfQtk97P+5czrf7PA9P94vP9pztcM495/PtvO455znnuWMReckRgUWOtDwl8sA5nAQ3BbiaH0coLcuvzVvfbiQ7Oe+rXx0icKZ2U4CrbjhDy+4rUPIdK/fR4uW7beVPczucEXCo5YHzwHkzLrRkvaVqsRy8Pc4CULhuD1w4MhbtHjgLQOG6PXDhyFi0e+AsAIXr9sARUcvxMSXzwPw//0FllQNCztjRTMtW7Qvl2+7JI+RbEnNp8fLPbeWXtv5ApRUnhXy8c5x3HdF6xG8OT754SLgi4TOf3sxqCp3TdNespSvyBX27Vy6d3Dsf/cS7jmjdA+cQZ8zBVVYPUXZ+Z9j8WV4H7cxpi0iuqjvtEIu1WszBWYfkDgkPnMPvyQPngXNIwKGaoxl3dXaOMne00GMbfcbRYUtqLRUf6DdCsDqOsDjLDw8S9BIeKqbVT+ynD3a1UmPzOeMM+HF2G/EZZ0MklHw76kgVR36jV9LqCa+h1jxVTmlZTXT02KjRJ//ZmdNOyLwdyHT3TdCuPR2E+JldWZf/vGBw/YNTdOf9hdqz1vqNPsMxf6aSz3FwDmC8DF9H0Pxn1Hlwcp9OnskAppzkLxb6AMl0UEYc3OnRGcEB74zVb03ME2RkcA9s2C/0Mz2z0gycmR76Sg6eFNjpwMk2Igrun7l/jWUgO7H6zIPDUrCS1/X/H3Cwd6L7fAieDE7nL6LgfFVDyqATHi6m6vozRlDtXePGXiUHwoNb83S5YgNBnhu7TH+ev2osEVkfn83ArXik1NhfJy8FaXDoEr2ReUzx8dpbDabgVj76tbFnw09OfldklyoGKA9KtwGvfeagIMfABYLXhXbYSkr+PjQgVsFDRvZjBq7Bf5aphko8bHgbeACxJM+4JQm5oS+GydgpbT8cNr1aLQSzav03Wvvp7/oFOQaup39CaMfAfFW/KzYwc/hBo24GTjFARHIMsNE7cNEQlcG9vL1OZ8KyzTa41Ax1CVy+Mqc4SN5+VBg4A4flKAPR7SUYoCy3UHDylwx7U9NBLbj3P2lVxmCnwTa4Lwq7lQEVlPUJPg7XDCsyDBwEb79XfGWEJSUn3VHFDJwO/t0PFglxYPtgSZ5xOn0ma1baBlfbOCIEw2ZF9t5OYyl9WdSj7efBPf7cjQMz00UJUGW+UwToOmiQMQOH/pT0BkO/tGKA1iV9q8SR8WFLiEHMwcHzhk2VSlA8BF2dB3fg0OCC9e2A0/llbbhNTE3/HV9wFy4GLAcuf6M8OESPzZgNSlfKT0TIWM04nR3W9suJv0LQUJHji/pSZd4nJgNhlxSCkAOTwcEO7qlsYHwJaIDEt6FuBg7LPHFtiaKDfQ53WDnJ8cUMHAukrmnUOHjCcb3/rHGIRR8GKWemw5e48+I4srugm7A3dfVeoEDgmqLLbEEXLxZkqMHgdZqdvUZtneNUWNZPe0t6CW9+p2fmlyfvl9njS77fbt32w8GuwWjKpb8nnhEBkR0zoulXZ9tV4FIzG5UZNzZ+RTeuqLe5ClxKer0CbnhkJuqQdA5cBW5Lao0Cru/UpG5cUW9zFbgXUsT7MvY4/pVR1GlxDlwFLin5iDLjmltvvFbnxhSTqqvAJW8TXyBgxuEoFI/kKnDPa5bqd7XD8eDmrv+seXazulRxC4lHctWMu2u1+usa+1ky1vBcBQ735M2vz/+0iN8H4pVcBY5B2lPUQ+1d879csfZYlq4EF0tA4Xz9B+kG/2L7ymy+AAAAAElFTkSuQmCC;" vertex="1" parent="WF4X5hiQnJDSYWs5_pEE-1">
                    <mxGeometry x="793" y="575.5" width="78" height="49" as="geometry"/>
                </mxCell>
                <mxCell id="66" style="edgeStyle=orthogonalEdgeStyle;rounded=0;orthogonalLoop=1;jettySize=auto;html=1;entryX=0;entryY=0.5;entryDx=0;entryDy=0;" edge="1" parent="WF4X5hiQnJDSYWs5_pEE-1" source="53" target="62">
                    <mxGeometry relative="1" as="geometry"/>
                </mxCell>
                <mxCell id="53" value="" style="shape=image;verticalLabelPosition=bottom;labelBackgroundColor=#ffffff;verticalAlign=top;aspect=fixed;imageAspect=0;image=data:image/png,iVBORw0KGgoAAAANSUhEUgAAAE4AAAAxCAYAAAB03p8JAAAFXklEQVRoBe2b/0+VVRzH/Qf80VWbNV2tsdFm5rIvzi3LcuvbxmxWazpa0WakMVqDxqqV5Q/ZgixB5EtQKNJFMwgEQu6gQpBvASIFChqFIghTubfQtk97P+5czrf7PA9P94vP9pztcM495/PtvO455znnuWMReckRgUWOtDwl8sA5nAQ3BbiaH0coLcuvzVvfbiQ7Oe+rXx0icKZ2U4CrbjhDy+4rUPIdK/fR4uW7beVPczucEXCo5YHzwHkzLrRkvaVqsRy8Pc4CULhuD1w4MhbtHjgLQOG6PXDhyFi0e+AsAIXr9sARUcvxMSXzwPw//0FllQNCztjRTMtW7Qvl2+7JI+RbEnNp8fLPbeWXtv5ApRUnhXy8c5x3HdF6xG8OT754SLgi4TOf3sxqCp3TdNespSvyBX27Vy6d3Dsf/cS7jmjdA+cQZ8zBVVYPUXZ+Z9j8WV4H7cxpi0iuqjvtEIu1WszBWYfkDgkPnMPvyQPngXNIwKGaoxl3dXaOMne00GMbfcbRYUtqLRUf6DdCsDqOsDjLDw8S9BIeKqbVT+ynD3a1UmPzOeMM+HF2G/EZZ0MklHw76kgVR36jV9LqCa+h1jxVTmlZTXT02KjRJ//ZmdNOyLwdyHT3TdCuPR2E+JldWZf/vGBw/YNTdOf9hdqz1vqNPsMxf6aSz3FwDmC8DF9H0Pxn1Hlwcp9OnskAppzkLxb6AMl0UEYc3OnRGcEB74zVb03ME2RkcA9s2C/0Mz2z0gycmR76Sg6eFNjpwMk2Igrun7l/jWUgO7H6zIPDUrCS1/X/H3Cwd6L7fAieDE7nL6LgfFVDyqATHi6m6vozRlDtXePGXiUHwoNb83S5YgNBnhu7TH+ev2osEVkfn83ArXik1NhfJy8FaXDoEr2ReUzx8dpbDabgVj76tbFnw09OfldklyoGKA9KtwGvfeagIMfABYLXhXbYSkr+PjQgVsFDRvZjBq7Bf5aphko8bHgbeACxJM+4JQm5oS+GydgpbT8cNr1aLQSzav03Wvvp7/oFOQaup39CaMfAfFW/KzYwc/hBo24GTjFARHIMsNE7cNEQlcG9vL1OZ8KyzTa41Ax1CVy+Mqc4SN5+VBg4A4flKAPR7SUYoCy3UHDylwx7U9NBLbj3P2lVxmCnwTa4Lwq7lQEVlPUJPg7XDCsyDBwEb79XfGWEJSUn3VHFDJwO/t0PFglxYPtgSZ5xOn0ma1baBlfbOCIEw2ZF9t5OYyl9WdSj7efBPf7cjQMz00UJUGW+UwToOmiQMQOH/pT0BkO/tGKA1iV9q8SR8WFLiEHMwcHzhk2VSlA8BF2dB3fg0OCC9e2A0/llbbhNTE3/HV9wFy4GLAcuf6M8OESPzZgNSlfKT0TIWM04nR3W9suJv0LQUJHji/pSZd4nJgNhlxSCkAOTwcEO7qlsYHwJaIDEt6FuBg7LPHFtiaKDfQ53WDnJ8cUMHAukrmnUOHjCcb3/rHGIRR8GKWemw5e48+I4srugm7A3dfVeoEDgmqLLbEEXLxZkqMHgdZqdvUZtneNUWNZPe0t6CW9+p2fmlyfvl9njS77fbt32w8GuwWjKpb8nnhEBkR0zoulXZ9tV4FIzG5UZNzZ+RTeuqLe5ClxKer0CbnhkJuqQdA5cBW5Lao0Cru/UpG5cUW9zFbgXUsT7MvY4/pVR1GlxDlwFLin5iDLjmltvvFbnxhSTqqvAJW8TXyBgxuEoFI/kKnDPa5bqd7XD8eDmrv+seXazulRxC4lHctWMu2u1+usa+1ky1vBcBQ735M2vz/+0iN8H4pVcBY5B2lPUQ+1d879csfZYlq4EF0tA4Xz9B+kG/2L7ymy+AAAAAElFTkSuQmCC;" vertex="1" parent="WF4X5hiQnJDSYWs5_pEE-1">
                    <mxGeometry x="793" y="715" width="78" height="49" as="geometry"/>
                </mxCell>
                <mxCell id="55" style="edgeStyle=orthogonalEdgeStyle;rounded=0;orthogonalLoop=1;jettySize=auto;html=1;exitX=0.5;exitY=1;exitDx=0;exitDy=0;exitPerimeter=0;entryX=0;entryY=0.25;entryDx=0;entryDy=0;" edge="1" parent="WF4X5hiQnJDSYWs5_pEE-1" source="58" target="50">
                    <mxGeometry relative="1" as="geometry">
                        <mxPoint x="450" y="304.5" as="sourcePoint"/>
                        <mxPoint x="790" y="292" as="targetPoint"/>
                        <Array as="points">
                            <mxPoint x="620" y="269"/>
                            <mxPoint x="620" y="292"/>
                        </Array>
                    </mxGeometry>
                </mxCell>
                <mxCell id="58" value="" style="shape=cylinder3;whiteSpace=wrap;html=1;boundedLbl=1;backgroundOutline=1;size=15;align=center;direction=north;" vertex="1" parent="WF4X5hiQnJDSYWs5_pEE-1">
                    <mxGeometry x="210" y="238.5" width="140" height="61" as="geometry"/>
                </mxCell>
                <mxCell id="59" value="&lt;span style=&quot;font-size: 20px&quot;&gt;App&lt;/span&gt;" style="rounded=1;whiteSpace=wrap;html=1;align=center;verticalAlign=top;" vertex="1" parent="WF4X5hiQnJDSYWs5_pEE-1">
                    <mxGeometry x="930" y="269" width="120" height="71" as="geometry"/>
                </mxCell>
                <mxCell id="70" style="edgeStyle=orthogonalEdgeStyle;rounded=0;orthogonalLoop=1;jettySize=auto;html=1;" edge="1" parent="WF4X5hiQnJDSYWs5_pEE-1" source="61" target="WF4X5hiQnJDSYWs5_pEE-65">
                    <mxGeometry relative="1" as="geometry"/>
                </mxCell>
                <mxCell id="61" value="&lt;span style=&quot;font-size: 20px&quot;&gt;App&lt;/span&gt;" style="rounded=1;whiteSpace=wrap;html=1;align=center;verticalAlign=top;" vertex="1" parent="WF4X5hiQnJDSYWs5_pEE-1">
                    <mxGeometry x="930" y="559" width="120" height="81" as="geometry"/>
                </mxCell>
                <mxCell id="71" style="edgeStyle=orthogonalEdgeStyle;rounded=0;orthogonalLoop=1;jettySize=auto;html=1;" edge="1" parent="WF4X5hiQnJDSYWs5_pEE-1" source="62" target="WF4X5hiQnJDSYWs5_pEE-65">
                    <mxGeometry relative="1" as="geometry"/>
                </mxCell>
                <mxCell id="62" value="&lt;span style=&quot;font-size: 20px&quot;&gt;App&lt;/span&gt;" style="rounded=1;whiteSpace=wrap;html=1;align=center;verticalAlign=top;" vertex="1" parent="WF4X5hiQnJDSYWs5_pEE-1">
                    <mxGeometry x="930" y="699" width="120" height="81" as="geometry"/>
                </mxCell>
                <mxCell id="WF4X5hiQnJDSYWs5_pEE-65" value="" style="outlineConnect=0;fontColor=#232F3E;gradientColor=#4D72F3;gradientDirection=north;fillColor=#3334B9;strokeColor=#ffffff;dashed=0;verticalLabelPosition=bottom;verticalAlign=top;align=center;html=1;fontSize=12;fontStyle=0;aspect=fixed;shape=mxgraph.aws4.resourceIcon;resIcon=mxgraph.aws4.dynamodb;" parent="WF4X5hiQnJDSYWs5_pEE-1" vertex="1">
                    <mxGeometry x="1190" y="570" width="60" height="60" as="geometry"/>
                </mxCell>
                <mxCell id="69" style="edgeStyle=orthogonalEdgeStyle;rounded=0;orthogonalLoop=1;jettySize=auto;html=1;" edge="1" parent="WF4X5hiQnJDSYWs5_pEE-1" source="60" target="WF4X5hiQnJDSYWs5_pEE-65">
                    <mxGeometry relative="1" as="geometry"/>
                </mxCell>
                <mxCell id="60" value="&lt;span style=&quot;font-size: 20px&quot;&gt;App&lt;/span&gt;" style="rounded=1;whiteSpace=wrap;html=1;align=center;verticalAlign=top;" vertex="1" parent="WF4X5hiQnJDSYWs5_pEE-1">
                    <mxGeometry x="930" y="409" width="120" height="71" as="geometry"/>
                </mxCell>
                <mxCell id="72" value="&lt;span style=&quot;font-size: 20px&quot;&gt;決済DB&lt;/span&gt;" style="text;html=1;strokeColor=none;fillColor=none;align=center;verticalAlign=middle;whiteSpace=wrap;rounded=0;dashed=1;" vertex="1" parent="WF4X5hiQnJDSYWs5_pEE-1">
                    <mxGeometry x="1220" y="624.5" width="90" height="40" as="geometry"/>
                </mxCell>
                <mxCell id="76" value="&lt;span style=&quot;font-size: 20px&quot;&gt;同期通信&lt;br&gt;（Dapr InvocationService）&lt;/span&gt;" style="text;html=1;strokeColor=none;fillColor=none;align=center;verticalAlign=middle;whiteSpace=wrap;rounded=0;dashed=1;" vertex="1" parent="WF4X5hiQnJDSYWs5_pEE-1">
                    <mxGeometry x="450" y="491" width="260" height="122.5" as="geometry"/>
                </mxCell>
                <mxCell id="78" value="&lt;span style=&quot;font-size: 20px&quot;&gt;非同期通信&lt;br&gt;（Dapr Pub/Sub）&lt;br&gt;&lt;/span&gt;" style="text;html=1;strokeColor=none;fillColor=none;align=center;verticalAlign=middle;whiteSpace=wrap;rounded=0;dashed=1;" vertex="1" parent="WF4X5hiQnJDSYWs5_pEE-1">
                    <mxGeometry x="440" y="260" width="210" height="122.5" as="geometry"/>
                </mxCell>
                <mxCell id="81" value="&lt;font style=&quot;font-size: 16px&quot;&gt;MDK Mock&lt;/font&gt;" style="rounded=1;whiteSpace=wrap;html=1;align=center;verticalAlign=top;" vertex="1" parent="WF4X5hiQnJDSYWs5_pEE-1">
                    <mxGeometry x="940" y="740" width="100" height="30" as="geometry"/>
                </mxCell>
                <mxCell id="82" value="&lt;font style=&quot;font-size: 16px&quot;&gt;MDK Mock&lt;/font&gt;" style="rounded=1;whiteSpace=wrap;html=1;align=center;verticalAlign=top;" vertex="1" parent="WF4X5hiQnJDSYWs5_pEE-1">
                    <mxGeometry x="940" y="600" width="100" height="30" as="geometry"/>
                </mxCell>
                <mxCell id="83" value="" style="shape=cylinder3;whiteSpace=wrap;html=1;boundedLbl=1;backgroundOutline=1;size=15;align=center;direction=north;" vertex="1" parent="WF4X5hiQnJDSYWs5_pEE-1">
                    <mxGeometry x="210" y="399.5" width="140" height="61" as="geometry"/>
                </mxCell>
                <mxCell id="84" value="&lt;span style=&quot;font-size: 20px&quot;&gt;payment-pubsub&lt;br&gt;&lt;/span&gt;" style="text;html=1;strokeColor=none;fillColor=none;align=center;verticalAlign=middle;whiteSpace=wrap;rounded=0;dashed=1;" vertex="1" parent="WF4X5hiQnJDSYWs5_pEE-1">
                    <mxGeometry x="50" y="247.75" width="155" height="40" as="geometry"/>
                </mxCell>
                <mxCell id="74" style="edgeStyle=orthogonalEdgeStyle;rounded=0;orthogonalLoop=1;jettySize=auto;html=1;entryX=0;entryY=0.5;entryDx=0;entryDy=0;exitX=0;exitY=0.75;exitDx=0;exitDy=0;" edge="1" parent="WF4X5hiQnJDSYWs5_pEE-1" source="50" target="52">
                    <mxGeometry relative="1" as="geometry">
                        <Array as="points">
                            <mxPoint x="700" y="317"/>
                            <mxPoint x="700" y="600"/>
                        </Array>
                    </mxGeometry>
                </mxCell>
                <mxCell id="75" style="edgeStyle=orthogonalEdgeStyle;rounded=0;orthogonalLoop=1;jettySize=auto;html=1;entryX=0;entryY=0.5;entryDx=0;entryDy=0;exitX=0;exitY=0.75;exitDx=0;exitDy=0;" edge="1" parent="WF4X5hiQnJDSYWs5_pEE-1" source="50" target="53">
                    <mxGeometry relative="1" as="geometry">
                        <Array as="points">
                            <mxPoint x="700" y="317"/>
                            <mxPoint x="700" y="740"/>
                        </Array>
                    </mxGeometry>
                </mxCell>
            </root>
        </mxGraphModel>
    </diagram>
    <diagram id="6hGFLwfOUW9BJ-s0fimq" name="20200916">
        &#xa;        &#xa;        &#xa;        &#xa;        &#xa;        &#xa;&#xa;
        <mxGraphModel dx="1300" dy="999" grid="1" gridSize="10" guides="1" tooltips="1" connect="1" arrows="1" fold="1" page="1" pageScale="1" pageWidth="827" pageHeight="1169" math="0" shadow="0">
            &#xa;            &#xa;            &#xa;            &#xa;            &#xa;            &#xa;&#xa;
            <root>
                &#xa;                &#xa;                &#xa;                &#xa;                &#xa;                &#xa;&#xa;
                <mxCell id="0"/>
                &#xa;                &#xa;                &#xa;                &#xa;                &#xa;                &#xa;&#xa;
                <mxCell id="1" parent="0"/>
                &#xa;                &#xa;                &#xa;                &#xa;                &#xa;                &#xa;&#xa;
                <mxCell id="19" value="AWS" style="dashed=1;verticalAlign=top;fontStyle=0;fontSize=16;" parent="1" vertex="1">
                    &#xa;                    &#xa;                    &#xa;                    &#xa;                    &#xa;                    &#xa;&#xa;
                    <mxGeometry x="340" y="20" width="1180" height="1095" as="geometry"/>
                    &#xa;                    &#xa;                    &#xa;                    &#xa;                &#xa;                &#xa;&#xa;
                </mxCell>
                &#xa;                &#xa;                &#xa;                &#xa;                &#xa;                &#xa;&#xa;
                <mxCell id="62" value="EKS" style="dashed=1;verticalAlign=top;fontStyle=0;fontSize=16;" parent="1" vertex="1">
                    &#xa;                    &#xa;                    &#xa;                    &#xa;                    &#xa;                    &#xa;&#xa;
                    <mxGeometry x="380" y="60" width="1100" height="825" as="geometry"/>
                    &#xa;                    &#xa;                    &#xa;                    &#xa;                &#xa;                &#xa;&#xa;
                </mxCell>
                &#xa;                &#xa;                &#xa;                &#xa;                &#xa;                &#xa;&#xa;
                <mxCell id="89" value="" style="rounded=0;whiteSpace=wrap;html=1;" parent="1" vertex="1">
                    &#xa;                    &#xa;                    &#xa;                    &#xa;                    &#xa;                    &#xa;&#xa;
                    <mxGeometry x="750" y="455" width="360" height="210" as="geometry"/>
                    &#xa;                    &#xa;                    &#xa;                    &#xa;                &#xa;                &#xa;&#xa;
                </mxCell>
                &#xa;                &#xa;                &#xa;                &#xa;                &#xa;                &#xa;&#xa;
                <mxCell id="87" value="" style="rounded=0;whiteSpace=wrap;html=1;" parent="1" vertex="1">
                    &#xa;                    &#xa;                    &#xa;                    &#xa;                    &#xa;                    &#xa;&#xa;
                    <mxGeometry x="410" y="590" width="180" height="210" as="geometry"/>
                    &#xa;                    &#xa;                    &#xa;                    &#xa;                &#xa;                &#xa;&#xa;
                </mxCell>
                &#xa;                &#xa;                &#xa;                &#xa;                &#xa;                &#xa;&#xa;
                <mxCell id="36" value="" style="rounded=0;whiteSpace=wrap;html=1;" parent="1" vertex="1">
                    &#xa;                    &#xa;                    &#xa;                    &#xa;                    &#xa;                    &#xa;&#xa;
                    <mxGeometry x="1200" y="485" width="250" height="360" as="geometry"/>
                    &#xa;                    &#xa;                    &#xa;                    &#xa;                &#xa;                &#xa;&#xa;
                </mxCell>
                &#xa;                &#xa;                &#xa;                &#xa;                &#xa;                &#xa;&#xa;
                <mxCell id="35" value="" style="rounded=0;whiteSpace=wrap;html=1;" parent="1" vertex="1">
                    &#xa;                    &#xa;                    &#xa;                    &#xa;                    &#xa;                    &#xa;&#xa;
                    <mxGeometry x="746.25" y="105" width="363.75" height="235" as="geometry"/>
                    &#xa;                    &#xa;                    &#xa;                    &#xa;                &#xa;                &#xa;&#xa;
                </mxCell>
                &#xa;                &#xa;                &#xa;                &#xa;                &#xa;                &#xa;&#xa;
                <mxCell id="34" value="" style="rounded=0;whiteSpace=wrap;html=1;" parent="1" vertex="1">
                    &#xa;                    &#xa;                    &#xa;                    &#xa;                    &#xa;                    &#xa;&#xa;
                    <mxGeometry x="750" y="675" width="360" height="200" as="geometry"/>
                    &#xa;                    &#xa;                    &#xa;                    &#xa;                &#xa;                &#xa;&#xa;
                </mxCell>
                &#xa;                &#xa;                &#xa;                &#xa;                &#xa;                &#xa;&#xa;
                <mxCell id="6" value="&lt;font style=&quot;font-size: 20px&quot;&gt;WMS&lt;/font&gt;" style="text;html=1;strokeColor=none;fillColor=none;align=center;verticalAlign=middle;whiteSpace=wrap;rounded=0;dashed=1;" parent="1" vertex="1">
                    &#xa;                    &#xa;                    &#xa;                    &#xa;                    &#xa;                    &#xa;&#xa;
                    <mxGeometry x="1200" y="485" width="70" height="40" as="geometry"/>
                    &#xa;                    &#xa;                    &#xa;                    &#xa;                &#xa;                &#xa;&#xa;
                </mxCell>
                &#xa;                &#xa;                &#xa;                &#xa;                &#xa;                &#xa;&#xa;
                <mxCell id="7" value="&lt;span style=&quot;font-size: 20px&quot;&gt;受注&lt;/span&gt;" style="text;html=1;strokeColor=none;fillColor=none;align=center;verticalAlign=middle;whiteSpace=wrap;rounded=0;dashed=1;" parent="1" vertex="1">
                    &#xa;                    &#xa;                    &#xa;                    &#xa;                    &#xa;                    &#xa;&#xa;
                    <mxGeometry x="750" y="675" width="70" height="40" as="geometry"/>
                    &#xa;                    &#xa;                    &#xa;                    &#xa;                &#xa;                &#xa;&#xa;
                </mxCell>
                &#xa;                &#xa;                &#xa;                &#xa;                &#xa;                &#xa;&#xa;
                <mxCell id="8" value="&lt;span style=&quot;font-size: 20px&quot;&gt;商品&lt;/span&gt;" style="text;html=1;strokeColor=none;fillColor=none;align=center;verticalAlign=middle;whiteSpace=wrap;rounded=0;dashed=1;" parent="1" vertex="1">
                    &#xa;                    &#xa;                    &#xa;                    &#xa;                    &#xa;                    &#xa;&#xa;
                    <mxGeometry x="750" y="105" width="70" height="40" as="geometry"/>
                    &#xa;                    &#xa;                    &#xa;                    &#xa;                &#xa;                &#xa;&#xa;
                </mxCell>
                &#xa;                &#xa;                &#xa;                &#xa;                &#xa;                &#xa;&#xa;
                <mxCell id="120" style="edgeStyle=orthogonalEdgeStyle;rounded=0;orthogonalLoop=1;jettySize=auto;html=1;" parent="1" target="41" edge="1">
                    &#xa;                    &#xa;                    &#xa;                    &#xa;                    &#xa;                    &#xa;&#xa;
                    <mxGeometry relative="1" as="geometry">
                        &#xa;                        &#xa;                        &#xa;                        &#xa;                        &#xa;                        &#xa;&#xa;
                        <mxPoint x="960" y="767.5" as="sourcePoint"/>
                        &#xa;                        &#xa;                        &#xa;                        &#xa;                    &#xa;                    &#xa;&#xa;
                    </mxGeometry>
                    &#xa;                    &#xa;                    &#xa;                    &#xa;                &#xa;                &#xa;&#xa;
                </mxCell>
                &#xa;                &#xa;                &#xa;                &#xa;                &#xa;                &#xa;&#xa;
                <mxCell id="12" value="" style="outlineConnect=0;fontColor=#232F3E;gradientColor=#4D72F3;gradientDirection=north;fillColor=#3334B9;strokeColor=#ffffff;dashed=0;verticalLabelPosition=bottom;verticalAlign=top;align=center;html=1;fontSize=12;fontStyle=0;aspect=fixed;shape=mxgraph.aws4.resourceIcon;resIcon=mxgraph.aws4.rds;" parent="1" vertex="1">
                    &#xa;                    &#xa;                    &#xa;                    &#xa;                    &#xa;                    &#xa;&#xa;
                    <mxGeometry x="1370" y="590" width="60" height="60" as="geometry"/>
                    &#xa;                    &#xa;                    &#xa;                    &#xa;                &#xa;                &#xa;&#xa;
                </mxCell>
                &#xa;                &#xa;                &#xa;                &#xa;                &#xa;                &#xa;&#xa;
                <mxCell id="13" value="エンドユーザー" style="outlineConnect=0;gradientColor=none;fontColor=#545B64;strokeColor=none;fillColor=#879196;dashed=0;verticalLabelPosition=bottom;verticalAlign=top;align=center;html=1;fontSize=12;fontStyle=0;aspect=fixed;shape=mxgraph.aws4.illustration_users;pointerEvents=1" parent="1" vertex="1">
                    &#xa;                    &#xa;                    &#xa;                    &#xa;                    &#xa;                    &#xa;&#xa;
                    <mxGeometry x="10" y="405" width="80" height="80" as="geometry"/>
                    &#xa;                    &#xa;                    &#xa;                    &#xa;                &#xa;                &#xa;&#xa;
                </mxCell>
                &#xa;                &#xa;                &#xa;                &#xa;                &#xa;                &#xa;&#xa;
                <mxCell id="64" style="edgeStyle=orthogonalEdgeStyle;rounded=0;orthogonalLoop=1;jettySize=auto;html=1;" parent="1" source="14" target="26" edge="1">
                    &#xa;                    &#xa;                    &#xa;                    &#xa;                    &#xa;                    &#xa;&#xa;
                    <mxGeometry relative="1" as="geometry"/>
                    &#xa;                    &#xa;                    &#xa;                    &#xa;                &#xa;                &#xa;&#xa;
                </mxCell>
                &#xa;                &#xa;                &#xa;                &#xa;                &#xa;                &#xa;&#xa;
                <mxCell id="14" value="" style="outlineConnect=0;fontColor=#232F3E;gradientColor=#F34482;gradientDirection=north;fillColor=#BC1356;strokeColor=#ffffff;dashed=0;verticalLabelPosition=bottom;verticalAlign=top;align=center;html=1;fontSize=12;fontStyle=0;aspect=fixed;shape=mxgraph.aws4.resourceIcon;resIcon=mxgraph.aws4.sqs;" parent="1" vertex="1">
                    &#xa;                    &#xa;                    &#xa;                    &#xa;                    &#xa;                    &#xa;&#xa;
                    <mxGeometry x="1027.5" y="896" width="59" height="59" as="geometry"/>
                    &#xa;                    &#xa;                    &#xa;                    &#xa;                &#xa;                &#xa;&#xa;
                </mxCell>
                &#xa;                &#xa;                &#xa;                &#xa;                &#xa;                &#xa;&#xa;
                <mxCell id="15" value="" style="outlineConnect=0;fontColor=#232F3E;gradientColor=#945DF2;gradientDirection=north;fillColor=#5A30B5;strokeColor=#ffffff;dashed=0;verticalLabelPosition=bottom;verticalAlign=top;align=center;html=1;fontSize=12;fontStyle=0;aspect=fixed;shape=mxgraph.aws4.resourceIcon;resIcon=mxgraph.aws4.cloudfront;" parent="1" vertex="1">
                    &#xa;                    &#xa;                    &#xa;                    &#xa;                    &#xa;                    &#xa;&#xa;
                    <mxGeometry x="465" y="955" width="60" height="60" as="geometry"/>
                    &#xa;                    &#xa;                    &#xa;                    &#xa;                &#xa;                &#xa;&#xa;
                </mxCell>
                &#xa;                &#xa;                &#xa;                &#xa;                &#xa;                &#xa;&#xa;
                <mxCell id="55" style="edgeStyle=orthogonalEdgeStyle;rounded=0;orthogonalLoop=1;jettySize=auto;html=1;" parent="1" source="17" target="15" edge="1">
                    &#xa;                    &#xa;                    &#xa;                    &#xa;                    &#xa;                    &#xa;&#xa;
                    <mxGeometry relative="1" as="geometry"/>
                    &#xa;                    &#xa;                    &#xa;                    &#xa;                &#xa;                &#xa;&#xa;
                </mxCell>
                &#xa;                &#xa;                &#xa;                &#xa;                &#xa;                &#xa;&#xa;
                <mxCell id="17" value="" style="outlineConnect=0;fontColor=#232F3E;gradientColor=#60A337;gradientDirection=north;fillColor=#277116;strokeColor=#ffffff;dashed=0;verticalLabelPosition=bottom;verticalAlign=top;align=center;html=1;fontSize=12;fontStyle=0;aspect=fixed;shape=mxgraph.aws4.resourceIcon;resIcon=mxgraph.aws4.s3;" parent="1" vertex="1">
                    &#xa;                    &#xa;                    &#xa;                    &#xa;                    &#xa;                    &#xa;&#xa;
                    <mxGeometry x="585" y="955" width="60" height="60" as="geometry"/>
                    &#xa;                    &#xa;                    &#xa;                    &#xa;                &#xa;                &#xa;&#xa;
                </mxCell>
                &#xa;                &#xa;                &#xa;                &#xa;                &#xa;                &#xa;&#xa;
                <mxCell id="20" value="&lt;font style=&quot;font-size: 20px&quot;&gt;SQS&lt;/font&gt;" style="text;html=1;strokeColor=none;fillColor=none;align=center;verticalAlign=middle;whiteSpace=wrap;rounded=0;dashed=1;" parent="1" vertex="1">
                    &#xa;                    &#xa;                    &#xa;                    &#xa;                    &#xa;                    &#xa;&#xa;
                    <mxGeometry x="1022" y="955" width="70" height="40" as="geometry"/>
                    &#xa;                    &#xa;                    &#xa;                    &#xa;                &#xa;                &#xa;&#xa;
                </mxCell>
                &#xa;                &#xa;                &#xa;                &#xa;                &#xa;                &#xa;&#xa;
                <mxCell id="52" style="edgeStyle=orthogonalEdgeStyle;rounded=0;orthogonalLoop=1;jettySize=auto;html=1;entryX=0;entryY=0.5;entryDx=0;entryDy=0;" parent="1" source="21" target="28" edge="1">
                    &#xa;                    &#xa;                    &#xa;                    &#xa;                    &#xa;                    &#xa;&#xa;
                    <mxGeometry relative="1" as="geometry"/>
                    &#xa;                    &#xa;                    &#xa;                    &#xa;                &#xa;                &#xa;&#xa;
                </mxCell>
                &#xa;                &#xa;                &#xa;                &#xa;                &#xa;                &#xa;&#xa;
                <mxCell id="53" style="edgeStyle=orthogonalEdgeStyle;rounded=0;orthogonalLoop=1;jettySize=auto;html=1;entryX=0;entryY=0.5;entryDx=0;entryDy=0;" parent="1" source="21" target="27" edge="1">
                    &#xa;                    &#xa;                    &#xa;                    &#xa;                    &#xa;                    &#xa;&#xa;
                    <mxGeometry relative="1" as="geometry"/>
                    &#xa;                    &#xa;                    &#xa;                    &#xa;                &#xa;                &#xa;&#xa;
                </mxCell>
                &#xa;                &#xa;                &#xa;                &#xa;                &#xa;                &#xa;&#xa;
                <mxCell id="83" style="edgeStyle=orthogonalEdgeStyle;rounded=0;orthogonalLoop=1;jettySize=auto;html=1;entryX=0;entryY=0.5;entryDx=0;entryDy=0;" parent="1" source="21" target="81" edge="1">
                    &#xa;                    &#xa;                    &#xa;                    &#xa;                    &#xa;                    &#xa;&#xa;
                    <mxGeometry relative="1" as="geometry"/>
                    &#xa;                    &#xa;                    &#xa;                    &#xa;                &#xa;                &#xa;&#xa;
                </mxCell>
                &#xa;                &#xa;                &#xa;                &#xa;                &#xa;                &#xa;&#xa;
                <mxCell id="138" style="edgeStyle=orthogonalEdgeStyle;rounded=0;orthogonalLoop=1;jettySize=auto;html=1;entryX=0;entryY=0.5;entryDx=0;entryDy=0;" edge="1" parent="1" source="21" target="107">
                    &#xa;                    &#xa;                    &#xa;                    &#xa;                    &#xa;                    &#xa;&#xa;
                    <mxGeometry relative="1" as="geometry"/>
                    &#xa;                    &#xa;                    &#xa;                    &#xa;                &#xa;                &#xa;&#xa;
                </mxCell>
                &#xa;                &#xa;                &#xa;                &#xa;                &#xa;                &#xa;&#xa;
                <mxCell id="21" value="サンプル" style="strokeWidth=1;shadow=0;dashed=0;align=center;html=1;shape=mxgraph.mockup.containers.window;align=left;verticalAlign=top;spacingLeft=8;strokeColor2=#008cff;strokeColor3=#c4c4c4;fontColor=#666666;mainText=;fontSize=17;labelBackgroundColor=none;" parent="1" vertex="1">
                    &#xa;                    &#xa;                    &#xa;                    &#xa;                    &#xa;                    &#xa;&#xa;
                    <mxGeometry x="100" y="405" width="160" height="105" as="geometry"/>
                    &#xa;                    &#xa;                    &#xa;                    &#xa;                &#xa;                &#xa;&#xa;
                </mxCell>
                &#xa;                &#xa;                &#xa;                &#xa;                &#xa;                &#xa;&#xa;
                <mxCell id="22" value="" style="edgeStyle=elbowEdgeStyle;elbow=horizontal;endArrow=classic;html=1;entryX=0.511;entryY=1.015;entryDx=0;entryDy=0;entryPerimeter=0;" parent="1" source="15" target="21" edge="1">
                    &#xa;                    &#xa;                    &#xa;                    &#xa;                    &#xa;                    &#xa;&#xa;
                    <mxGeometry width="50" height="50" relative="1" as="geometry">
                        &#xa;                        &#xa;                        &#xa;                        &#xa;                        &#xa;                        &#xa;&#xa;
                        <mxPoint x="180" y="585" as="sourcePoint"/>
                        &#xa;                        &#xa;                        &#xa;                        &#xa;                        &#xa;                        &#xa;&#xa;
                        <mxPoint x="230" y="535" as="targetPoint"/>
                        &#xa;                        &#xa;                        &#xa;                        &#xa;                        &#xa;                        &#xa;&#xa;
                        <Array as="points">
                            &#xa;                            &#xa;                            &#xa;                            &#xa;                            &#xa;                            &#xa;&#xa;
                            <mxPoint x="182" y="745"/>
                            &#xa;                            &#xa;                            &#xa;                            &#xa;                        &#xa;                        &#xa;&#xa;
                        </Array>
                        &#xa;                        &#xa;                        &#xa;                        &#xa;                    &#xa;                    &#xa;&#xa;
                    </mxGeometry>
                    &#xa;                    &#xa;                    &#xa;                    &#xa;                &#xa;                &#xa;&#xa;
                </mxCell>
                &#xa;                &#xa;                &#xa;                &#xa;                &#xa;                &#xa;&#xa;
                <mxCell id="26" value="&lt;font style=&quot;font-size: 20px&quot;&gt;出荷&lt;/font&gt;" style="rounded=1;whiteSpace=wrap;html=1;" parent="1" vertex="1">
                    &#xa;                    &#xa;                    &#xa;                    &#xa;                    &#xa;                    &#xa;&#xa;
                    <mxGeometry x="1230" y="595" width="100" height="50" as="geometry"/>
                    &#xa;                    &#xa;                    &#xa;                    &#xa;                &#xa;                &#xa;&#xa;
                </mxCell>
                &#xa;                &#xa;                &#xa;                &#xa;                &#xa;                &#xa;&#xa;
                <mxCell id="54" style="edgeStyle=orthogonalEdgeStyle;rounded=0;orthogonalLoop=1;jettySize=auto;html=1;" parent="1" source="27" target="37" edge="1">
                    &#xa;                    &#xa;                    &#xa;                    &#xa;                    &#xa;                    &#xa;&#xa;
                    <mxGeometry relative="1" as="geometry"/>
                    &#xa;                    &#xa;                    &#xa;                    &#xa;                &#xa;                &#xa;&#xa;
                </mxCell>
                &#xa;                &#xa;                &#xa;                &#xa;                &#xa;                &#xa;&#xa;
                <mxCell id="27" value="&lt;font style=&quot;font-size: 20px&quot;&gt;商品一覧&lt;/font&gt;" style="rounded=1;whiteSpace=wrap;html=1;" parent="1" vertex="1">
                    &#xa;                    &#xa;                    &#xa;                    &#xa;                    &#xa;                    &#xa;&#xa;
                    <mxGeometry x="787.5" y="145" width="100" height="50" as="geometry"/>
                    &#xa;                    &#xa;                    &#xa;                    &#xa;                &#xa;                &#xa;&#xa;
                </mxCell>
                &#xa;                &#xa;                &#xa;                &#xa;                &#xa;                &#xa;&#xa;
                <mxCell id="100" style="edgeStyle=orthogonalEdgeStyle;rounded=0;orthogonalLoop=1;jettySize=auto;html=1;entryX=0;entryY=0.5;entryDx=0;entryDy=0;" parent="1" source="114" target="30" edge="1">
                    &#xa;                    &#xa;                    &#xa;                    &#xa;                    &#xa;                    &#xa;&#xa;
                    <mxGeometry relative="1" as="geometry"/>
                    &#xa;                    &#xa;                    &#xa;                    &#xa;                &#xa;                &#xa;&#xa;
                </mxCell>
                &#xa;                &#xa;                &#xa;                &#xa;                &#xa;                &#xa;&#xa;
                <mxCell id="104" style="edgeStyle=orthogonalEdgeStyle;rounded=0;orthogonalLoop=1;jettySize=auto;html=1;" parent="1" source="28" target="114" edge="1">
                    &#xa;                    &#xa;                    &#xa;                    &#xa;                    &#xa;                    &#xa;&#xa;
                    <mxGeometry relative="1" as="geometry"/>
                    &#xa;                    &#xa;                    &#xa;                    &#xa;                &#xa;                &#xa;&#xa;
                </mxCell>
                &#xa;                &#xa;                &#xa;                &#xa;                &#xa;                &#xa;&#xa;
                <mxCell id="28" value="&lt;font style=&quot;font-size: 20px&quot;&gt;注文&lt;/font&gt;" style="rounded=1;whiteSpace=wrap;html=1;" parent="1" vertex="1">
                    &#xa;                    &#xa;                    &#xa;                    &#xa;                    &#xa;                    &#xa;&#xa;
                    <mxGeometry x="450" y="653" width="100" height="50" as="geometry"/>
                    &#xa;                    &#xa;                    &#xa;                    &#xa;                &#xa;                &#xa;&#xa;
                </mxCell>
                &#xa;                &#xa;                &#xa;                &#xa;                &#xa;                &#xa;&#xa;
                <mxCell id="108" style="edgeStyle=orthogonalEdgeStyle;rounded=0;orthogonalLoop=1;jettySize=auto;html=1;" parent="1" source="29" target="124" edge="1">
                    &#xa;                    &#xa;                    &#xa;                    &#xa;                    &#xa;                    &#xa;&#xa;
                    <mxGeometry relative="1" as="geometry">
                        &#xa;                        &#xa;                        &#xa;                        &#xa;                        &#xa;                        &#xa;&#xa;
                        <mxPoint x="967.5" y="585.0000000000001" as="targetPoint"/>
                        &#xa;                        &#xa;                        &#xa;                        &#xa;                    &#xa;                    &#xa;&#xa;
                    </mxGeometry>
                    &#xa;                    &#xa;                    &#xa;                    &#xa;                &#xa;                &#xa;&#xa;
                </mxCell>
                &#xa;                &#xa;                &#xa;                &#xa;                &#xa;                &#xa;&#xa;
                <mxCell id="29" value="&lt;font style=&quot;font-size: 20px&quot;&gt;在庫引き当て&lt;/font&gt;" style="rounded=1;whiteSpace=wrap;html=1;" parent="1" vertex="1">
                    &#xa;                    &#xa;                    &#xa;                    &#xa;                    &#xa;                    &#xa;&#xa;
                    <mxGeometry x="787.5" y="600" width="135" height="50" as="geometry"/>
                    &#xa;                    &#xa;                    &#xa;                    &#xa;                &#xa;                &#xa;&#xa;
                </mxCell>
                &#xa;                &#xa;                &#xa;                &#xa;                &#xa;                &#xa;&#xa;
                <mxCell id="67" style="edgeStyle=orthogonalEdgeStyle;rounded=0;orthogonalLoop=1;jettySize=auto;html=1;" parent="1" source="30" target="122" edge="1">
                    &#xa;                    &#xa;                    &#xa;                    &#xa;                    &#xa;                    &#xa;&#xa;
                    <mxGeometry relative="1" as="geometry">
                        &#xa;                        &#xa;                        &#xa;                        &#xa;                        &#xa;                        &#xa;&#xa;
                        <mxPoint x="930" y="737.5" as="targetPoint"/>
                        &#xa;                        &#xa;                        &#xa;                        &#xa;                    &#xa;                    &#xa;&#xa;
                    </mxGeometry>
                    &#xa;                    &#xa;                    &#xa;                    &#xa;                &#xa;                &#xa;&#xa;
                </mxCell>
                &#xa;                &#xa;                &#xa;                &#xa;                &#xa;                &#xa;&#xa;
                <mxCell id="30" value="&lt;font style=&quot;font-size: 20px&quot;&gt;受注&lt;/font&gt;" style="rounded=1;whiteSpace=wrap;html=1;" parent="1" vertex="1">
                    &#xa;                    &#xa;                    &#xa;                    &#xa;                    &#xa;                    &#xa;&#xa;
                    <mxGeometry x="787.5" y="712.5" width="100" height="50" as="geometry"/>
                    &#xa;                    &#xa;                    &#xa;                    &#xa;                &#xa;                &#xa;&#xa;
                </mxCell>
                &#xa;                &#xa;                &#xa;                &#xa;                &#xa;                &#xa;&#xa;
                <mxCell id="37" value="" style="outlineConnect=0;fontColor=#232F3E;gradientColor=#4D72F3;gradientDirection=north;fillColor=#3334B9;strokeColor=#ffffff;dashed=0;verticalLabelPosition=bottom;verticalAlign=top;align=center;html=1;fontSize=12;fontStyle=0;aspect=fixed;shape=mxgraph.aws4.resourceIcon;resIcon=mxgraph.aws4.rds;" parent="1" vertex="1">
                    &#xa;                    &#xa;                    &#xa;                    &#xa;                    &#xa;                    &#xa;&#xa;
                    <mxGeometry x="973.75" y="170" width="60" height="60" as="geometry"/>
                    &#xa;                    &#xa;                    &#xa;                    &#xa;                &#xa;                &#xa;&#xa;
                </mxCell>
                &#xa;                &#xa;                &#xa;                &#xa;                &#xa;                &#xa;&#xa;
                <mxCell id="38" value="" style="endArrow=classic;html=1;exitX=1;exitY=0.5;exitDx=0;exitDy=0;" parent="1" source="26" target="12" edge="1">
                    &#xa;                    &#xa;                    &#xa;                    &#xa;                    &#xa;                    &#xa;&#xa;
                    <mxGeometry width="50" height="50" relative="1" as="geometry">
                        &#xa;                        &#xa;                        &#xa;                        &#xa;                        &#xa;                        &#xa;&#xa;
                        <mxPoint x="1060" y="628" as="sourcePoint"/>
                        &#xa;                        &#xa;                        &#xa;                        &#xa;                        &#xa;                        &#xa;&#xa;
                        <mxPoint x="850" y="535" as="targetPoint"/>
                        &#xa;                        &#xa;                        &#xa;                        &#xa;                    &#xa;                    &#xa;&#xa;
                    </mxGeometry>
                    &#xa;                    &#xa;                    &#xa;                    &#xa;                &#xa;                &#xa;&#xa;
                </mxCell>
                &#xa;                &#xa;                &#xa;                &#xa;                &#xa;                &#xa;&#xa;
                <mxCell id="119" style="edgeStyle=orthogonalEdgeStyle;rounded=0;orthogonalLoop=1;jettySize=auto;html=1;exitX=0.5;exitY=1;exitDx=0;exitDy=0;" parent="1" source="41" target="14" edge="1">
                    &#xa;                    &#xa;                    &#xa;                    &#xa;                    &#xa;                    &#xa;&#xa;
                    <mxGeometry relative="1" as="geometry">
                        &#xa;                        &#xa;                        &#xa;                        &#xa;                        &#xa;                        &#xa;&#xa;
                        <Array as="points">
                            &#xa;                            &#xa;                            &#xa;                            &#xa;                            &#xa;                            &#xa;&#xa;
                            <mxPoint x="960" y="926"/>
                            &#xa;                            &#xa;                            &#xa;                            &#xa;                        &#xa;                        &#xa;&#xa;
                        </Array>
                        &#xa;                        &#xa;                        &#xa;                        &#xa;                    &#xa;                    &#xa;&#xa;
                    </mxGeometry>
                    &#xa;                    &#xa;                    &#xa;                    &#xa;                &#xa;                &#xa;&#xa;
                </mxCell>
                &#xa;                &#xa;                &#xa;                &#xa;                &#xa;                &#xa;&#xa;
                <mxCell id="41" value="&lt;span style=&quot;font-size: 20px&quot;&gt;出荷指示&lt;/span&gt;" style="rounded=1;whiteSpace=wrap;html=1;" parent="1" vertex="1">
                    &#xa;                    &#xa;                    &#xa;                    &#xa;                    &#xa;                    &#xa;&#xa;
                    <mxGeometry x="910" y="807.5" width="100" height="50" as="geometry"/>
                    &#xa;                    &#xa;                    &#xa;                    &#xa;                &#xa;                &#xa;&#xa;
                </mxCell>
                &#xa;                &#xa;                &#xa;                &#xa;                &#xa;                &#xa;&#xa;
                <mxCell id="56" value="&lt;font style=&quot;font-size: 20px&quot;&gt;Cloudfront&lt;/font&gt;" style="text;html=1;strokeColor=none;fillColor=none;align=center;verticalAlign=middle;whiteSpace=wrap;rounded=0;dashed=1;" parent="1" vertex="1">
                    &#xa;                    &#xa;                    &#xa;                    &#xa;                    &#xa;                    &#xa;&#xa;
                    <mxGeometry x="460" y="1015" width="70" height="40" as="geometry"/>
                    &#xa;                    &#xa;                    &#xa;                    &#xa;                &#xa;                &#xa;&#xa;
                </mxCell>
                &#xa;                &#xa;                &#xa;                &#xa;                &#xa;                &#xa;&#xa;
                <mxCell id="57" value="&lt;font style=&quot;font-size: 20px&quot;&gt;S3&lt;/font&gt;" style="text;html=1;strokeColor=none;fillColor=none;align=center;verticalAlign=middle;whiteSpace=wrap;rounded=0;dashed=1;" parent="1" vertex="1">
                    &#xa;                    &#xa;                    &#xa;                    &#xa;                    &#xa;                    &#xa;&#xa;
                    <mxGeometry x="585" y="1015" width="70" height="40" as="geometry"/>
                    &#xa;                    &#xa;                    &#xa;                    &#xa;                &#xa;                &#xa;&#xa;
                </mxCell>
                &#xa;                &#xa;                &#xa;                &#xa;                &#xa;                &#xa;&#xa;
                <mxCell id="58" value="&lt;font style=&quot;font-size: 20px&quot;&gt;受注DB&lt;/font&gt;" style="text;html=1;strokeColor=none;fillColor=none;align=center;verticalAlign=middle;whiteSpace=wrap;rounded=0;dashed=1;" parent="1" vertex="1">
                    &#xa;                    &#xa;                    &#xa;                    &#xa;                    &#xa;                    &#xa;&#xa;
                    <mxGeometry x="967.5" y="762.5" width="85" height="40" as="geometry"/>
                    &#xa;                    &#xa;                    &#xa;                    &#xa;                &#xa;                &#xa;&#xa;
                </mxCell>
                &#xa;                &#xa;                &#xa;                &#xa;                &#xa;                &#xa;&#xa;
                <mxCell id="59" value="&lt;font style=&quot;font-size: 20px&quot;&gt;商品DB&lt;/font&gt;" style="text;html=1;strokeColor=none;fillColor=none;align=center;verticalAlign=middle;whiteSpace=wrap;rounded=0;dashed=1;" parent="1" vertex="1">
                    &#xa;                    &#xa;                    &#xa;                    &#xa;                    &#xa;                    &#xa;&#xa;
                    <mxGeometry x="1014.5" y="230" width="85" height="40" as="geometry"/>
                    &#xa;                    &#xa;                    &#xa;                    &#xa;                &#xa;                &#xa;&#xa;
                </mxCell>
                &#xa;                &#xa;                &#xa;                &#xa;                &#xa;                &#xa;&#xa;
                <mxCell id="60" value="&lt;font style=&quot;font-size: 20px&quot;&gt;倉庫DB&lt;/font&gt;" style="text;html=1;strokeColor=none;fillColor=none;align=center;verticalAlign=middle;whiteSpace=wrap;rounded=0;dashed=1;" parent="1" vertex="1">
                    &#xa;                    &#xa;                    &#xa;                    &#xa;                    &#xa;                    &#xa;&#xa;
                    <mxGeometry x="1357.5" y="645" width="85" height="40" as="geometry"/>
                    &#xa;                    &#xa;                    &#xa;                    &#xa;                &#xa;                &#xa;&#xa;
                </mxCell>
                &#xa;                &#xa;                &#xa;                &#xa;                &#xa;                &#xa;&#xa;
                <mxCell id="61" value="&lt;font style=&quot;font-size: 22px&quot;&gt;サンプルアプリケーション&lt;/font&gt;" style="text;html=1;strokeColor=none;fillColor=none;align=center;verticalAlign=middle;whiteSpace=wrap;rounded=0;" parent="1" vertex="1">
                    &#xa;                    &#xa;                    &#xa;                    &#xa;                    &#xa;                    &#xa;&#xa;
                    <mxGeometry y="55" width="340" height="60" as="geometry"/>
                    &#xa;                    &#xa;                    &#xa;                    &#xa;                &#xa;                &#xa;&#xa;
                </mxCell>
                &#xa;                &#xa;                &#xa;                &#xa;                &#xa;                &#xa;&#xa;
                <mxCell id="63" value="" style="outlineConnect=0;fontColor=#232F3E;gradientColor=#F78E04;gradientDirection=north;fillColor=#D05C17;strokeColor=#ffffff;dashed=0;verticalLabelPosition=bottom;verticalAlign=top;align=center;html=1;fontSize=12;fontStyle=0;aspect=fixed;shape=mxgraph.aws4.resourceIcon;resIcon=mxgraph.aws4.eks;" parent="1" vertex="1">
                    &#xa;                    &#xa;                    &#xa;                    &#xa;                    &#xa;                    &#xa;&#xa;
                    <mxGeometry x="380" y="58.75" width="52.5" height="52.5" as="geometry"/>
                    &#xa;                    &#xa;                    &#xa;                    &#xa;                &#xa;                &#xa;&#xa;
                </mxCell>
                &#xa;                &#xa;                &#xa;                &#xa;                &#xa;                &#xa;&#xa;
                <mxCell id="75" value="イベントドリブン" style="shape=callout;whiteSpace=wrap;html=1;perimeter=calloutPerimeter;position2=0;" parent="1" vertex="1">
                    &#xa;                    &#xa;                    &#xa;                    &#xa;                    &#xa;                    &#xa;&#xa;
                    <mxGeometry x="1290" y="757.5" width="120" height="80" as="geometry"/>
                    &#xa;                    &#xa;                    &#xa;                    &#xa;                &#xa;                &#xa;&#xa;
                </mxCell>
                &#xa;                &#xa;                &#xa;                &#xa;                &#xa;                &#xa;&#xa;
                <mxCell id="76" value="バッチ(Cronjob)" style="shape=callout;whiteSpace=wrap;html=1;perimeter=calloutPerimeter;position2=0.04;base=28;direction=west;" parent="1" vertex="1">
                    &#xa;                    &#xa;                    &#xa;                    &#xa;                    &#xa;                    &#xa;&#xa;
                    <mxGeometry x="875" y="935" width="115" height="80" as="geometry"/>
                    &#xa;                    &#xa;                    &#xa;                    &#xa;                &#xa;                &#xa;&#xa;
                </mxCell>
                &#xa;                &#xa;                &#xa;                &#xa;                &#xa;                &#xa;&#xa;
                <mxCell id="77" value="SAGAパターンにする？" style="shape=callout;whiteSpace=wrap;html=1;perimeter=calloutPerimeter;position2=0.89;base=28;direction=east;" parent="1" vertex="1">
                    &#xa;                    &#xa;                    &#xa;                    &#xa;                    &#xa;                    &#xa;&#xa;
                    <mxGeometry x="484" y="555" width="135" height="80" as="geometry"/>
                    &#xa;                    &#xa;                    &#xa;                    &#xa;                &#xa;                &#xa;&#xa;
                </mxCell>
                &#xa;                &#xa;                &#xa;                &#xa;                &#xa;                &#xa;&#xa;
                <mxCell id="80" style="edgeStyle=orthogonalEdgeStyle;rounded=0;orthogonalLoop=1;jettySize=auto;html=1;exitX=0.5;exitY=1;exitDx=0;exitDy=0;" parent="1" source="27" target="27" edge="1">
                    &#xa;                    &#xa;                    &#xa;                    &#xa;                    &#xa;                    &#xa;&#xa;
                    <mxGeometry relative="1" as="geometry"/>
                    &#xa;                    &#xa;                    &#xa;                    &#xa;                &#xa;                &#xa;&#xa;
                </mxCell>
                &#xa;                &#xa;                &#xa;                &#xa;                &#xa;                &#xa;&#xa;
                <mxCell id="82" style="edgeStyle=orthogonalEdgeStyle;rounded=0;orthogonalLoop=1;jettySize=auto;html=1;" parent="1" source="81" target="37" edge="1">
                    &#xa;                    &#xa;                    &#xa;                    &#xa;                    &#xa;                    &#xa;&#xa;
                    <mxGeometry relative="1" as="geometry"/>
                    &#xa;                    &#xa;                    &#xa;                    &#xa;                &#xa;                &#xa;&#xa;
                </mxCell>
                &#xa;                &#xa;                &#xa;                &#xa;                &#xa;                &#xa;&#xa;
                <mxCell id="81" value="&lt;font style=&quot;font-size: 20px&quot;&gt;商品詳細&lt;/font&gt;" style="rounded=1;whiteSpace=wrap;html=1;" parent="1" vertex="1">
                    &#xa;                    &#xa;                    &#xa;                    &#xa;                    &#xa;                    &#xa;&#xa;
                    <mxGeometry x="787.5" y="220" width="100" height="50" as="geometry"/>
                    &#xa;                    &#xa;                    &#xa;                    &#xa;                &#xa;                &#xa;&#xa;
                </mxCell>
                &#xa;                &#xa;                &#xa;                &#xa;                &#xa;                &#xa;&#xa;
                <mxCell id="84" value="&lt;span style=&quot;font-size: 20px&quot;&gt;クライアントアプリ&lt;br&gt;（React）&lt;br&gt;&lt;/span&gt;" style="rounded=1;whiteSpace=wrap;html=1;" parent="1" vertex="1">
                    &#xa;                    &#xa;                    &#xa;                    &#xa;                    &#xa;                    &#xa;&#xa;
                    <mxGeometry x="640" y="1035" width="187.5" height="50" as="geometry"/>
                    &#xa;                    &#xa;                    &#xa;                    &#xa;                &#xa;                &#xa;&#xa;
                </mxCell>
                &#xa;                &#xa;                &#xa;                &#xa;                &#xa;                &#xa;&#xa;
                <mxCell id="88" value="&lt;span style=&quot;font-size: 20px&quot;&gt;注文&lt;/span&gt;" style="text;html=1;strokeColor=none;fillColor=none;align=center;verticalAlign=middle;whiteSpace=wrap;rounded=0;dashed=1;" parent="1" vertex="1">
                    &#xa;                    &#xa;                    &#xa;                    &#xa;                    &#xa;                    &#xa;&#xa;
                    <mxGeometry x="410" y="590" width="70" height="40" as="geometry"/>
                    &#xa;                    &#xa;                    &#xa;                    &#xa;                &#xa;                &#xa;&#xa;
                </mxCell>
                &#xa;                &#xa;                &#xa;                &#xa;                &#xa;                &#xa;&#xa;
                <mxCell id="103" value="&lt;font style=&quot;font-size: 20px&quot;&gt;在庫DB&lt;/font&gt;" style="text;html=1;strokeColor=none;fillColor=none;align=center;verticalAlign=middle;whiteSpace=wrap;rounded=0;dashed=1;" parent="1" vertex="1">
                    &#xa;                    &#xa;                    &#xa;                    &#xa;                    &#xa;                    &#xa;&#xa;
                    <mxGeometry x="961.25" y="615" width="85" height="40" as="geometry"/>
                    &#xa;                    &#xa;                    &#xa;                    &#xa;                &#xa;                &#xa;&#xa;
                </mxCell>
                &#xa;                &#xa;                &#xa;                &#xa;                &#xa;                &#xa;&#xa;
                <mxCell id="106" value="&lt;span style=&quot;font-size: 20px&quot;&gt;在庫&lt;/span&gt;" style="text;html=1;strokeColor=none;fillColor=none;align=center;verticalAlign=middle;whiteSpace=wrap;rounded=0;dashed=1;" parent="1" vertex="1">
                    &#xa;                    &#xa;                    &#xa;                    &#xa;                    &#xa;                    &#xa;&#xa;
                    <mxGeometry x="750" y="475" width="70" height="40" as="geometry"/>
                    &#xa;                    &#xa;                    &#xa;                    &#xa;                &#xa;                &#xa;&#xa;
                </mxCell>
                &#xa;                &#xa;                &#xa;                &#xa;                &#xa;                &#xa;&#xa;
                <mxCell id="109" style="edgeStyle=orthogonalEdgeStyle;rounded=0;orthogonalLoop=1;jettySize=auto;html=1;" parent="1" source="107" target="124" edge="1">
                    &#xa;                    &#xa;                    &#xa;                    &#xa;                    &#xa;                    &#xa;&#xa;
                    <mxGeometry relative="1" as="geometry">
                        &#xa;                        &#xa;                        &#xa;                        &#xa;                        &#xa;                        &#xa;&#xa;
                        <mxPoint x="967.5" y="585.0000000000001" as="targetPoint"/>
                        &#xa;                        &#xa;                        &#xa;                        &#xa;                    &#xa;                    &#xa;&#xa;
                    </mxGeometry>
                    &#xa;                    &#xa;                    &#xa;                    &#xa;                &#xa;                &#xa;&#xa;
                </mxCell>
                &#xa;                &#xa;                &#xa;                &#xa;                &#xa;                &#xa;&#xa;
                <mxCell id="107" value="&lt;font style=&quot;font-size: 20px&quot;&gt;在庫参照&lt;/font&gt;" style="rounded=1;whiteSpace=wrap;html=1;" parent="1" vertex="1">
                    &#xa;                    &#xa;                    &#xa;                    &#xa;                    &#xa;                    &#xa;&#xa;
                    <mxGeometry x="787.5" y="525" width="135" height="50" as="geometry"/>
                    &#xa;                    &#xa;                    &#xa;                    &#xa;                &#xa;                &#xa;&#xa;
                </mxCell>
                &#xa;                &#xa;                &#xa;                &#xa;                &#xa;                &#xa;&#xa;
                <mxCell id="116" style="edgeStyle=orthogonalEdgeStyle;rounded=0;orthogonalLoop=1;jettySize=auto;html=1;" parent="1" source="114" target="29" edge="1">
                    &#xa;                    &#xa;                    &#xa;                    &#xa;                    &#xa;                    &#xa;&#xa;
                    <mxGeometry relative="1" as="geometry"/>
                    &#xa;                    &#xa;                    &#xa;                    &#xa;                &#xa;                &#xa;&#xa;
                </mxCell>
                &#xa;                &#xa;                &#xa;                &#xa;                &#xa;                &#xa;&#xa;
                <mxCell id="114" value="" style="outlineConnect=0;fontColor=#232F3E;gradientColor=#F34482;gradientDirection=north;fillColor=#BC1356;strokeColor=#ffffff;dashed=0;verticalLabelPosition=bottom;verticalAlign=top;align=center;html=1;fontSize=12;fontStyle=0;aspect=fixed;shape=mxgraph.aws4.resourceIcon;resIcon=mxgraph.aws4.sqs;" parent="1" vertex="1">
                    &#xa;                    &#xa;                    &#xa;                    &#xa;                    &#xa;                    &#xa;&#xa;
                    <mxGeometry x="630" y="648.5" width="59" height="59" as="geometry"/>
                    &#xa;                    &#xa;                    &#xa;                    &#xa;                &#xa;                &#xa;&#xa;
                </mxCell>
                &#xa;                &#xa;                &#xa;                &#xa;                &#xa;                &#xa;&#xa;
                <mxCell id="123" value="" style="edgeStyle=orthogonalEdgeStyle;rounded=0;orthogonalLoop=1;jettySize=auto;html=1;" parent="1" source="122" target="41" edge="1">
                    &#xa;                    &#xa;                    &#xa;                    &#xa;                    &#xa;                    &#xa;&#xa;
                    <mxGeometry relative="1" as="geometry"/>
                    &#xa;                    &#xa;                    &#xa;                    &#xa;                &#xa;                &#xa;&#xa;
                </mxCell>
                &#xa;                &#xa;                &#xa;                &#xa;                &#xa;                &#xa;&#xa;
                <mxCell id="122" value="" style="outlineConnect=0;fontColor=#232F3E;gradientColor=#4D72F3;gradientDirection=north;fillColor=#3334B9;strokeColor=#ffffff;dashed=0;verticalLabelPosition=bottom;verticalAlign=top;align=center;html=1;fontSize=12;fontStyle=0;aspect=fixed;shape=mxgraph.aws4.resourceIcon;resIcon=mxgraph.aws4.dynamodb;" parent="1" vertex="1">
                    &#xa;                    &#xa;                    &#xa;                    &#xa;                    &#xa;                    &#xa;&#xa;
                    <mxGeometry x="930" y="707.5" width="60" height="60" as="geometry"/>
                    &#xa;                    &#xa;                    &#xa;                    &#xa;                &#xa;                &#xa;&#xa;
                </mxCell>
                &#xa;                &#xa;                &#xa;                &#xa;                &#xa;                &#xa;&#xa;
                <mxCell id="127" style="edgeStyle=orthogonalEdgeStyle;rounded=0;orthogonalLoop=1;jettySize=auto;html=1;entryX=0.5;entryY=1;entryDx=0;entryDy=0;" edge="1" parent="1" source="124" target="126">
                    &#xa;                    &#xa;                    &#xa;                    &#xa;                    &#xa;                    &#xa;&#xa;
                    <mxGeometry relative="1" as="geometry"/>
                    &#xa;                    &#xa;                    &#xa;                    &#xa;                &#xa;                &#xa;&#xa;
                </mxCell>
                &#xa;                &#xa;                &#xa;                &#xa;                &#xa;                &#xa;&#xa;
                <mxCell id="124" value="" style="outlineConnect=0;fontColor=#232F3E;gradientColor=#4D72F3;gradientDirection=north;fillColor=#3334B9;strokeColor=#ffffff;dashed=0;verticalLabelPosition=bottom;verticalAlign=top;align=center;html=1;fontSize=12;fontStyle=0;aspect=fixed;shape=mxgraph.aws4.resourceIcon;resIcon=mxgraph.aws4.dynamodb;" parent="1" vertex="1">
                    &#xa;                    &#xa;                    &#xa;                    &#xa;                    &#xa;                    &#xa;&#xa;
                    <mxGeometry x="973.75" y="555" width="60" height="60" as="geometry"/>
                    &#xa;                    &#xa;                    &#xa;                    &#xa;                &#xa;                &#xa;&#xa;
                </mxCell>
                &#xa;                &#xa;                &#xa;                &#xa;                &#xa;                &#xa;&#xa;
                <mxCell id="132" style="edgeStyle=orthogonalEdgeStyle;rounded=0;orthogonalLoop=1;jettySize=auto;html=1;" edge="1" parent="1" source="125" target="129">
                    &#xa;                    &#xa;                    &#xa;                    &#xa;                    &#xa;                    &#xa;&#xa;
                    <mxGeometry relative="1" as="geometry"/>
                    &#xa;                    &#xa;                    &#xa;                    &#xa;                &#xa;                &#xa;&#xa;
                </mxCell>
                &#xa;                &#xa;                &#xa;                &#xa;                &#xa;                &#xa;&#xa;
                <mxCell id="125" value="" style="outlineConnect=0;fontColor=#232F3E;gradientColor=#F34482;gradientDirection=north;fillColor=#BC1356;strokeColor=#ffffff;dashed=0;verticalLabelPosition=bottom;verticalAlign=top;align=center;html=1;fontSize=12;fontStyle=0;aspect=fixed;shape=mxgraph.aws4.resourceIcon;resIcon=mxgraph.aws4.sqs;" vertex="1" parent="1">
                    &#xa;                    &#xa;                    &#xa;                    &#xa;                    &#xa;                    &#xa;&#xa;
                    <mxGeometry x="974.75" y="365" width="59" height="59" as="geometry"/>
                    &#xa;                    &#xa;                    &#xa;                    &#xa;                &#xa;                &#xa;&#xa;
                </mxCell>
                &#xa;                &#xa;                &#xa;                &#xa;                &#xa;                &#xa;&#xa;
                <mxCell id="128" style="edgeStyle=orthogonalEdgeStyle;rounded=0;orthogonalLoop=1;jettySize=auto;html=1;" edge="1" parent="1" source="126" target="125">
                    &#xa;                    &#xa;                    &#xa;                    &#xa;                    &#xa;                    &#xa;&#xa;
                    <mxGeometry relative="1" as="geometry"/>
                    &#xa;                    &#xa;                    &#xa;                    &#xa;                &#xa;                &#xa;&#xa;
                </mxCell>
                &#xa;                &#xa;                &#xa;                &#xa;                &#xa;                &#xa;&#xa;
                <mxCell id="126" value="&lt;span style=&quot;font-size: 20px&quot;&gt;在庫抽出&lt;/span&gt;" style="rounded=1;whiteSpace=wrap;html=1;" vertex="1" parent="1">
                    &#xa;                    &#xa;                    &#xa;                    &#xa;                    &#xa;                    &#xa;&#xa;
                    <mxGeometry x="936.25" y="465" width="135" height="50" as="geometry"/>
                    &#xa;                    &#xa;                    &#xa;                    &#xa;                &#xa;                &#xa;&#xa;
                </mxCell>
                &#xa;                &#xa;                &#xa;                &#xa;                &#xa;                &#xa;&#xa;
                <mxCell id="131" style="edgeStyle=orthogonalEdgeStyle;rounded=0;orthogonalLoop=1;jettySize=auto;html=1;" edge="1" parent="1" source="129" target="37">
                    &#xa;                    &#xa;                    &#xa;                    &#xa;                    &#xa;                    &#xa;&#xa;
                    <mxGeometry relative="1" as="geometry"/>
                    &#xa;                    &#xa;                    &#xa;                    &#xa;                &#xa;                &#xa;&#xa;
                </mxCell>
                &#xa;                &#xa;                &#xa;                &#xa;                &#xa;                &#xa;&#xa;
                <mxCell id="129" value="&lt;span style=&quot;font-size: 20px&quot;&gt;在庫反映&lt;/span&gt;" style="rounded=1;whiteSpace=wrap;html=1;" vertex="1" parent="1">
                    &#xa;                    &#xa;                    &#xa;                    &#xa;                    &#xa;                    &#xa;&#xa;
                    <mxGeometry x="936.75" y="270" width="135" height="50" as="geometry"/>
                    &#xa;                    &#xa;                    &#xa;                    &#xa;                &#xa;                &#xa;&#xa;
                </mxCell>
                &#xa;                &#xa;                &#xa;                &#xa;                &#xa;                &#xa;&#xa;
                <mxCell id="134" value="タイムラグを許容する在庫表示用" style="shape=callout;whiteSpace=wrap;html=1;perimeter=calloutPerimeter;position2=0;" vertex="1" parent="1">
                    &#xa;                    &#xa;                    &#xa;                    &#xa;                    &#xa;                    &#xa;&#xa;
                    <mxGeometry x="1099.5" y="220" width="120" height="80" as="geometry"/>
                    &#xa;                    &#xa;                    &#xa;                    &#xa;                &#xa;                &#xa;&#xa;
                </mxCell>
                &#xa;                &#xa;                &#xa;                &#xa;                &#xa;                &#xa;&#xa;
                <mxCell id="136" value="正式な論理在庫" style="shape=callout;whiteSpace=wrap;html=1;perimeter=calloutPerimeter;position2=0;" vertex="1" parent="1">
                    &#xa;                    &#xa;                    &#xa;                    &#xa;                    &#xa;                    &#xa;&#xa;
                    <mxGeometry x="1060" y="510" width="120" height="80" as="geometry"/>
                    &#xa;                    &#xa;                    &#xa;                    &#xa;                &#xa;                &#xa;&#xa;
                </mxCell>
                &#xa;                &#xa;                &#xa;                &#xa;            &#xa;            &#xa;&#xa;
            </root>
            &#xa;            &#xa;            &#xa;            &#xa;        &#xa;        &#xa;&#xa;
        </mxGraphModel>
        &#xa;        &#xa;        &#xa;        &#xa;    &#xa;    &#xa;&#xa;
    </diagram>
</mxfile>